# xmcd CD database file
#
# Track frame offsets:
#	150
#	15140
#	32382
#	62247
#	79827
#	93825
#	109935
#	125582
#	143847
#	155895
#	175185
#	188690
#	203585
#	221665
#
# Disc length: 3223 seconds
#
# Revision: 0
# Processed by: cddbd v1.5.2PL0 Copyright (c) Steve Scherf et al.
# Submitted via: CDex 1.51
#
DISCID=b60c950e
DTITLE=Nashville Train - Country and Western Party CD3
DYEAR=1994
DGENRE=Country
TTITLE0=Next Time In Town
TTITLE1=Mama, He's Crazy
TTITLE2=Sweet Home Alabama
TTITLE3=Oh,Lonesome Me
TTITLE4=Am I Blue
TTITLE5=Always On My Mind
TTITLE6=King Of The Road
TTITLE7=Garden Party
TTITLE8=Teach Your Children Well
TTITLE9=Wand'rin Star
TTITLE10=Bad Moon Rising
TTITLE11=As I Hold You Close Tonight 
TTITLE12=Rockin' All Over The World
TTITLE13=Amazing Grace
EXTD=YEAR: 1994
EXTT0=
EXTT1=
EXTT2=
EXTT3=
EXTT4=
EXTT5=
EXTT6=
EXTT7=
EXTT8=
EXTT9=
EXTT10=
EXTT11=
EXTT12=
EXTT13=
PLAYORDER=
